<svg width="20" height="20" viewBox="0 0 20 20" fill="none" xmlns="http://www.w3.org/2000/svg">
<path d="M6.5 2C6.18967 1.99984 5.88694 2.09593 5.63351 2.27503C5.38008 2.45413 5.18844 2.70742 5.085 3H3.5C3.10218 3 2.72064 3.15804 2.43934 3.43934C2.15804 3.72064 2 4.10218 2 4.5V16.5C2 16.8978 2.15804 17.2794 2.43934 17.5607C2.72064 17.842 3.10218 18 3.5 18H10.257C9.62009 17.2282 9.2058 16.2973 9.05877 15.3075C8.91174 14.3177 9.03752 13.3065 9.42258 12.3829C9.80765 11.4593 10.4374 10.6582 11.244 10.066C12.0506 9.47375 13.0035 9.1128 14 9.022V4.5C14 4.10218 13.842 3.72064 13.5607 3.43934C13.2794 3.15804 12.8978 3 12.5 3H10.915C10.8116 2.70742 10.6199 2.45413 10.3665 2.27503C10.1131 2.09593 9.81033 1.99984 9.5 2H6.5ZM6 3.5C6 3.36739 6.05268 3.24022 6.14645 3.14645C6.24022 3.05268 6.36739 3 6.5 3H9.5C9.63261 3 9.75979 3.05268 9.85355 3.14645C9.94732 3.24022 10 3.36739 10 3.5C10 3.63261 9.94732 3.75979 9.85355 3.85355C9.75979 3.94732 9.63261 4 9.5 4H6.5C6.36739 4 6.24022 3.94732 6.14645 3.85355C6.05268 3.75979 6 3.63261 6 3.5ZM10.854 9.854L7.354 13.354C7.30756 13.4006 7.25238 13.4375 7.19163 13.4627C7.13089 13.4879 7.06577 13.5009 7 13.5009C6.93423 13.5009 6.86911 13.4879 6.80837 13.4627C6.74762 13.4375 6.69245 13.4006 6.646 13.354L5.146 11.854C5.09951 11.8075 5.06264 11.7523 5.03748 11.6916C5.01232 11.6308 4.99937 11.5657 4.99937 11.5C4.99937 11.4343 5.01232 11.3692 5.03748 11.3084C5.06264 11.2477 5.09951 11.1925 5.146 11.146C5.23989 11.0521 5.36722 10.9994 5.5 10.9994C5.56574 10.9994 5.63084 11.0123 5.69158 11.0375C5.75232 11.0626 5.80751 11.0995 5.854 11.146L7 12.293L10.146 9.146C10.2399 9.05211 10.3672 8.99937 10.5 8.99937C10.6328 8.99937 10.7601 9.05211 10.854 9.146C10.9479 9.23989 11.0006 9.36723 11.0006 9.5C11.0006 9.63278 10.9479 9.76011 10.854 9.854ZM19 14.5C19 15.6935 18.5259 16.8381 17.682 17.682C16.8381 18.5259 15.6935 19 14.5 19C13.3065 19 12.1619 18.5259 11.318 17.682C10.4741 16.8381 10 15.6935 10 14.5C10 13.3065 10.4741 12.1619 11.318 11.318C12.1619 10.4741 13.3065 10 14.5 10C15.6935 10 16.8381 10.4741 17.682 11.318C18.5259 12.1619 19 13.3065 19 14.5ZM15 12.5C15 12.3674 14.9473 12.2402 14.8536 12.1464C14.7598 12.0527 14.6326 12 14.5 12C14.3674 12 14.2402 12.0527 14.1464 12.1464C14.0527 12.2402 14 12.3674 14 12.5V14H12.5C12.3674 14 12.2402 14.0527 12.1464 14.1464C12.0527 14.2402 12 14.3674 12 14.5C12 14.6326 12.0527 14.7598 12.1464 14.8536C12.2402 14.9473 12.3674 15 12.5 15H14V16.5C14 16.6326 14.0527 16.7598 14.1464 16.8536C14.2402 16.9473 14.3674 17 14.5 17C14.6326 17 14.7598 16.9473 14.8536 16.8536C14.9473 16.7598 15 16.6326 15 16.5V15H16.5C16.6326 15 16.7598 14.9473 16.8536 14.8536C16.9473 14.7598 17 14.6326 17 14.5C17 14.3674 16.9473 14.2402 16.8536 14.1464C16.7598 14.0527 16.6326 14 16.5 14H15V12.5Z" fill="white"/>
</svg>
