<svg width="20" height="20" viewBox="0 0 20 20" fill="none" xmlns="http://www.w3.org/2000/svg">
<path d="M13.3837 2.045C13.6181 2.27941 13.7497 2.59729 13.7497 2.92875C13.7497 3.2602 13.6181 3.57809 13.3837 3.8125L7.19625 10L13.3837 16.1875C13.6114 16.4233 13.7374 16.739 13.7346 17.0668C13.7317 17.3945 13.6003 17.708 13.3685 17.9398C13.1368 18.1715 12.8232 18.303 12.4955 18.3058C12.1678 18.3087 11.852 18.1827 11.6162 17.955L4.545 10.8837C4.31066 10.6493 4.17902 10.3315 4.17902 10C4.17902 9.66854 4.31066 9.35066 4.545 9.11625L11.6162 2.045C11.8507 1.81066 12.1685 1.67902 12.5 1.67902C12.8315 1.67902 13.1493 1.81066 13.3837 2.045Z" fill="#59656F"/>
</svg>
