<svg width="16" height="16" viewBox="0 0 16 16" fill="none" xmlns="http://www.w3.org/2000/svg">
<path d="M6.66663 8.00002C6.66663 8.35364 6.8071 8.69278 7.05715 8.94283C7.3072 9.19288 7.64634 9.33335 7.99996 9.33335C8.35358 9.33335 8.69272 9.19288 8.94277 8.94283C9.19282 8.69278 9.33329 8.35364 9.33329 8.00002C9.33329 7.6464 9.19282 7.30726 8.94277 7.05721C8.69272 6.80716 8.35358 6.66669 7.99996 6.66669C7.64634 6.66669 7.3072 6.80716 7.05715 7.05721C6.8071 7.30726 6.66663 7.6464 6.66663 8.00002ZM6.66663 4.00002C6.66663 4.35364 6.8071 4.69278 7.05715 4.94283C7.3072 5.19288 7.64634 5.33335 7.99996 5.33335C8.35358 5.33335 8.69272 5.19288 8.94277 4.94283C9.19282 4.69278 9.33329 4.35364 9.33329 4.00002C9.33329 3.6464 9.19282 3.30726 8.94277 3.05721C8.69272 2.80716 8.35358 2.66669 7.99996 2.66669C7.64634 2.66669 7.3072 2.80716 7.05715 3.05721C6.8071 3.30726 6.66663 3.6464 6.66663 4.00002ZM6.66663 12C6.66663 12.3536 6.8071 12.6928 7.05715 12.9428C7.3072 13.1929 7.64634 13.3334 7.99996 13.3334C8.35358 13.3334 8.69272 13.1929 8.94277 12.9428C9.19282 12.6928 9.33329 12.3536 9.33329 12C9.33329 11.6464 9.19282 11.3073 8.94277 11.0572C8.69272 10.8072 8.35358 10.6667 7.99996 10.6667C7.64634 10.6667 7.3072 10.8072 7.05715 11.0572C6.8071 11.3073 6.66663 11.6464 6.66663 12Z" fill="#59656F"/>
</svg>
