<svg width="20" height="20" viewBox="0 0 20 20" fill="none" xmlns="http://www.w3.org/2000/svg">
<path d="M6.61619 17.955C6.38185 17.7206 6.25021 17.4027 6.25021 17.0713C6.25021 16.7398 6.38185 16.4219 6.61619 16.1875L12.8037 10L6.61619 3.8125C6.38849 3.57675 6.2625 3.26099 6.26535 2.93325C6.2682 2.6055 6.39966 2.29199 6.63142 2.06023C6.86318 1.82847 7.17669 1.69701 7.50444 1.69416C7.83218 1.69131 8.14794 1.8173 8.38369 2.045L15.4549 9.11625C15.6893 9.35066 15.8209 9.66855 15.8209 10C15.8209 10.3315 15.6893 10.6493 15.4549 10.8838L8.38369 17.955C8.14928 18.1893 7.8314 18.321 7.49994 18.321C7.16848 18.321 6.8506 18.1893 6.61619 17.955Z" fill="#59656F"/>
</svg>
