<svg width="16" height="16" viewBox="0 0 16 16" fill="none" xmlns="http://www.w3.org/2000/svg">
<path d="M9.86671 3.07536L14.334 10.516C14.976 11.5847 14.6607 12.9907 13.6294 13.656C13.2832 13.8802 12.8797 13.9996 12.4674 14H3.53204C2.31804 14 1.33337 12.98 1.33337 11.7207C1.33337 11.2947 1.44871 10.878 1.66537 10.516L6.13337 3.07536C6.77471 2.00669 8.13071 1.67936 9.16204 2.34469C9.44737 2.52869 9.68871 2.77869 9.86671 3.07536ZM8.38671 3.63469C8.30509 3.5822 8.21368 3.54679 8.118 3.53061C8.02232 3.51443 7.92435 3.51782 7.83001 3.54056C7.73568 3.5633 7.64693 3.60493 7.56913 3.66294C7.49133 3.72094 7.4261 3.79411 7.37737 3.87803L2.91004 11.32C2.83747 11.4413 2.79922 11.58 2.79937 11.7214C2.79937 12.1414 3.12737 12.4814 3.53271 12.4814H12.4667C12.604 12.4814 12.738 12.4414 12.854 12.3667C13.0205 12.2561 13.1379 12.0856 13.1817 11.8906C13.2255 11.6956 13.1925 11.4912 13.0894 11.32L8.62204 3.87803C8.56345 3.78004 8.48317 3.6968 8.38737 3.63469H8.38671ZM8.00004 11.3334C7.82323 11.3334 7.65366 11.2631 7.52864 11.1381C7.40361 11.0131 7.33337 10.8435 7.33337 10.6667C7.33337 10.4899 7.40361 10.3203 7.52864 10.1953C7.65366 10.0703 7.82323 10 8.00004 10C8.17685 10 8.34642 10.0703 8.47144 10.1953C8.59647 10.3203 8.66671 10.4899 8.66671 10.6667C8.66671 10.8435 8.59647 11.0131 8.47144 11.1381C8.34642 11.2631 8.17685 11.3334 8.00004 11.3334ZM8.00004 5.33336C8.17685 5.33336 8.34642 5.4036 8.47144 5.52862C8.59647 5.65365 8.66671 5.82322 8.66671 6.00003V8.66669C8.66671 8.8435 8.59647 9.01307 8.47144 9.1381C8.34642 9.26312 8.17685 9.33336 8.00004 9.33336C7.82323 9.33336 7.65366 9.26312 7.52864 9.1381C7.40361 9.01307 7.33337 8.8435 7.33337 8.66669V6.00003C7.33337 5.82322 7.40361 5.65365 7.52864 5.52862C7.65366 5.4036 7.82323 5.33336 8.00004 5.33336Z" fill="white"/>
</svg>
